<?xml version="1.0" encoding="utf-8"?>
<!-- Generator: Adobe Illustrator 25.0.1, SVG Export Plug-In . SVG Version: 6.00 Build 0)  -->
<svg version="1.0" id="Ebene_1" xmlns="http://www.w3.org/2000/svg" xmlns:xlink="http://www.w3.org/1999/xlink" x="0px" y="0px"
	 viewBox="0 0 368.5 368.5" style="enable-background:new 0 0 368.5 368.5;" xml:space="preserve">
<style type="text/css">
	.st0{fill:#FFFFFF;}
</style>
<path class="st0" d="M312.38,102.23l-37-21.68V39.53c0-2.63-1.06-5.19-2.92-7.04c-1.85-1.85-4.42-2.91-7.04-2.91h-30.7
	c-2.63,0-5.19,1.06-7.04,2.91c-1.85,1.85-2.92,4.41-2.92,7.04v13.05l-35.32-20.1c-3.04-1.73-6.8-1.73-9.84-0.01L56.25,102.43
	c-3.12,1.77-5.05,5.07-5.05,8.66v139.65c0,3.36,1.68,6.48,4.5,8.32l4.92,3.22c3.24,2.13,7.41,2.18,10.7,0.14l109.71-67.99
	l10.49,6.08L89.04,264c-2.89,1.78-4.67,4.94-4.71,8.33c-0.04,3.4,1.65,6.59,4.5,8.45l30.98,20.31c3.23,2.11,7.4,2.17,10.7,0.14
	l112.07-69.33l10.5,6.08l-104.75,64.88c-2.88,1.79-4.66,4.95-4.71,8.34c-0.04,3.39,1.65,6.58,4.5,8.45l26.94,17.66
	c1.65,1.08,3.55,1.62,5.46,1.62c1.74,0,3.48-0.45,5.04-1.37l102.66-60.2c4.74-2.78,6.33-8.88,3.55-13.62
	c-2.78-4.75-8.88-6.33-13.62-3.55v-0.01l-97.34,57.08l-8.71-5.7l105.59-65.41c2.97-1.85,4.77-5.12,4.71-8.62
	c-0.05-3.49-1.94-6.72-4.96-8.47l-30.04-17.39c-3.16-1.83-7.12-1.77-10.22,0.15l-111.75,69.13l-12.61-8.26l103.32-64
	c2.97-1.85,4.76-5.12,4.71-8.61c-0.05-3.49-1.95-6.73-4.97-8.47l-30.04-17.39c-3.19-1.85-7.09-1.79-10.22,0.15L71.12,239.13V116.89
	l113.39-64.3l45.29,25.77c3.09,1.76,6.86,1.74,9.93-0.04c3.08-1.79,4.95-5.05,4.95-8.6V49.49h10.79v36.77
	c0,3.52,1.88,6.81,4.92,8.59l37,21.68v141.16c0,5.5,4.46,9.96,9.96,9.96c5.5,0,9.96-4.46,9.96-9.96l-0.01-146.86
	C317.3,107.3,315.41,104.02,312.38,102.23L312.38,102.23z"/>
<g>
</g>
<g>
</g>
<g>
</g>
<g>
</g>
<g>
</g>
<g>
</g>
</svg>
